<mxfile host="app.diagrams.net" modified="2021-04-23T03:19:29.839Z" agent="5.0 (Macintosh; Intel Mac OS X 10_15_7) AppleWebKit/537.36 (KHTML, like Gecko) Chrome/90.0.4430.72 Safari/537.36" etag="QS6BcqWW8kMZKel4Xcb2" version="14.2.7" type="github">
  <diagram id="ru6HBqJ93o1stxbcAgsf" name="第 1 页">
    <mxGraphModel dx="1619" dy="1062" grid="1" gridSize="10" guides="1" tooltips="1" connect="1" arrows="1" fold="1" page="1" pageScale="1" pageWidth="827" pageHeight="1169" math="0" shadow="0">
      <root>
        <mxCell id="0" />
        <mxCell id="1" parent="0" />
        <mxCell id="qMNki4L_DQQMsOHSVaSi-1" value="客户数据" style="rounded=1;whiteSpace=wrap;html=1;" vertex="1" parent="1">
          <mxGeometry x="180" y="90" width="90" height="50" as="geometry" />
        </mxCell>
      </root>
    </mxGraphModel>
  </diagram>
</mxfile>
